<?xml version="1.0" encoding="utf-8"?>
<!-- Generator: Adobe Illustrator 19.1.0, SVG Export Plug-In . SVG Version: 6.00 Build 0)  -->
<svg version="1.1" id="Layer_1" xmlns="http://www.w3.org/2000/svg" xmlns:xlink="http://www.w3.org/1999/xlink" x="0px" y="0px"
	 viewBox="0 0 64 64" enable-background="new 0 0 64 64" xml:space="preserve">
<g id="Sound-Enable">
	<path d="M47.906311,22.5869999c-0.4071999,0.4071999-0.4071999,1.0692997,0.0009995,1.4775009
		c1.8964005,1.8964996,2.9414024,4.4188995,2.9414024,7.1015987c0,2.6835022-1.045002,5.2060013-2.9414024,7.1025009
		c-0.4081993,0.4081993-0.4081993,1.0703011-0.0009995,1.4775009c0.2041245,0.2040977,0.4717026,0.3066978,0.7392006,0.3066978
		c0.267601,0,0.535202-0.1026001,0.7383003-0.3056984c2.2929993-2.2919998,3.5546989-5.3389015,3.5546989-8.5810013
		c0-3.2412987-1.2616997-6.2880993-3.5546989-8.5800991C48.9776115,22.1777992,48.3145103,22.1786995,47.906311,22.5869999z"/>
	<path d="M57.3760109,16.3125c-0.4081993-0.4062004-1.0702972-0.4062004-1.4785004,0
		c-0.4071999,0.4081993-0.4071999,1.0704002,0,1.4785995c7.375,7.375,7.375,19.3759003,0,26.7509003
		c-0.4071999,0.4081993-0.4071999,1.0703011,0,1.4785004c0.2041016,0.2041016,0.4717026,0.3056984,0.7392998,0.3056984
		c0.2675018,0,0.5351028-0.1024971,0.7392006-0.3056984C65.5645142,37.830101,65.5645142,24.5030003,57.3760109,16.3125z"/>
	<path d="M37.119812,10.0068998c-0.2562981,0-0.518898,0.0480003-0.7773781,0.1513004l-23.2777214,9.3035002v0.0133991
		c-3.9111996,0.1193008-7.1570992,2.8481998-8.0629997,6.5083008C2.3919132,26.7413998,0.4826133,29.1457005,0.4826133,32
		c0,2.8544006,1.9092999,5.2587013,4.5192003,6.0167007c0.9057999,3.660099,4.1516995,6.3889999,8.0628986,6.5083008v0.0133972
		l23.2777214,9.3034019c0.2583771,0.1032982,0.5211792,0.1512985,0.7773781,0.1512985
		c1.1044006,0,2.0879021-0.8918991,2.0879021-2.0918007v-39.802597
		C39.2077141,10.8990002,38.2241135,10.0068998,37.119812,10.0068998z M2.5724354,32
		c0-1.5760002,0.8770001-2.9512997,2.1685777-3.6630993v7.3262997C3.4494355,34.9513016,2.5724354,33.5760994,2.5724354,32z
		 M6.890213,36.7821007c-0.0279999-0.2750015-0.0594997-0.549202-0.0594997-0.8316994v-7.9007015
		c0-0.2826004,0.0314999-0.5569,0.0594997-0.8318996c0.3994999-3.1051006,2.9932222-5.5331001,6.1744995-5.6611004v20.8865986
		C9.8834352,42.3153,7.2897129,39.8874016,6.890213,36.7821007z M37.1180115,51.9012985l-21.9635773-8.7781982V20.8770008
		l21.9635773-8.7778006V51.9012985z"/>
</g>
<g>
</g>
<g>
</g>
<g>
</g>
<g>
</g>
<g>
</g>
<g>
</g>
<g>
</g>
<g>
</g>
<g>
</g>
<g>
</g>
<g>
</g>
<g>
</g>
<g>
</g>
<g>
</g>
<g>
</g>
</svg>
